<mxfile host="65bd71144e" modified="2021-01-17T17:58:44.599Z" agent="5.0 (Macintosh; Intel Mac OS X 10_15_7) AppleWebKit/537.36 (KHTML, like Gecko) Code/1.52.1 Chrome/83.0.4103.122 Electron/9.3.5 Safari/537.36" version="14.2.4" etag="yrVdJ0wq9wA3QJxO4Vhn" type="embed" pages="2">
    <diagram id="QjmBLaI1z3VNnPoLmnMR" name="ページ1">
        <mxGraphModel dx="658" dy="492" grid="1" gridSize="10" guides="1" tooltips="1" connect="1" arrows="1" fold="1" page="1" pageScale="1" pageWidth="850" pageHeight="1100" math="0" shadow="0">
            <root>
                <mxCell id="0"/>
                <mxCell id="1" parent="0"/>
                <mxCell id="9" style="edgeStyle=orthogonalEdgeStyle;rounded=0;orthogonalLoop=1;jettySize=auto;html=1;exitX=1;exitY=0.5;exitDx=0;exitDy=0;entryX=0.5;entryY=0;entryDx=0;entryDy=0;" edge="1" parent="1" source="2" target="6">
                    <mxGeometry relative="1" as="geometry"/>
                </mxCell>
                <mxCell id="2" value="&lt;font style=&quot;font-size: 18px&quot;&gt;G&lt;sub&gt;d2&lt;/sub&gt;(s)&lt;/font&gt;" style="rounded=0;whiteSpace=wrap;html=1;strokeWidth=2;" vertex="1" parent="1">
                    <mxGeometry x="160" y="220" width="80" height="40" as="geometry"/>
                </mxCell>
                <mxCell id="10" style="edgeStyle=orthogonalEdgeStyle;rounded=0;orthogonalLoop=1;jettySize=auto;html=1;exitX=1;exitY=0.5;exitDx=0;exitDy=0;entryX=0.5;entryY=0;entryDx=0;entryDy=0;" edge="1" parent="1" source="3" target="5">
                    <mxGeometry relative="1" as="geometry"/>
                </mxCell>
                <mxCell id="3" value="&lt;font style=&quot;font-size: 18px&quot;&gt;G&lt;/font&gt;&lt;font&gt;&lt;sub style=&quot;font-size: 15px&quot;&gt;d1&lt;/sub&gt;&lt;font style=&quot;font-size: 18px&quot;&gt;(s)&lt;/font&gt;&lt;/font&gt;" style="rounded=0;whiteSpace=wrap;html=1;strokeWidth=2;" vertex="1" parent="1">
                    <mxGeometry x="160" y="290" width="80" height="40" as="geometry"/>
                </mxCell>
                <mxCell id="11" style="edgeStyle=orthogonalEdgeStyle;rounded=0;orthogonalLoop=1;jettySize=auto;html=1;exitX=1;exitY=0.5;exitDx=0;exitDy=0;entryX=0;entryY=0.5;entryDx=0;entryDy=0;" edge="1" parent="1" source="4" target="5">
                    <mxGeometry relative="1" as="geometry"/>
                </mxCell>
                <mxCell id="4" value="&lt;font style=&quot;font-size: 18px&quot;&gt;G&lt;/font&gt;&lt;font&gt;&lt;sub style=&quot;font-size: 15px&quot;&gt;p&lt;/sub&gt;&lt;font style=&quot;font-size: 18px&quot;&gt;(s)&lt;/font&gt;&lt;/font&gt;" style="rounded=0;whiteSpace=wrap;html=1;strokeWidth=2;" vertex="1" parent="1">
                    <mxGeometry x="160" y="360" width="80" height="40" as="geometry"/>
                </mxCell>
                <mxCell id="12" style="edgeStyle=orthogonalEdgeStyle;rounded=0;orthogonalLoop=1;jettySize=auto;html=1;exitX=1;exitY=0.5;exitDx=0;exitDy=0;entryX=0;entryY=0.5;entryDx=0;entryDy=0;" edge="1" parent="1" source="5" target="6">
                    <mxGeometry relative="1" as="geometry"/>
                </mxCell>
                <mxCell id="5" value="" style="shape=sumEllipse;perimeter=ellipsePerimeter;whiteSpace=wrap;html=1;backgroundOutline=1;strokeWidth=2;" vertex="1" parent="1">
                    <mxGeometry x="320" y="370" width="20" height="20" as="geometry"/>
                </mxCell>
                <mxCell id="13" style="edgeStyle=orthogonalEdgeStyle;rounded=0;orthogonalLoop=1;jettySize=auto;html=1;exitX=1;exitY=0.5;exitDx=0;exitDy=0;" edge="1" parent="1" source="6">
                    <mxGeometry relative="1" as="geometry">
                        <mxPoint x="510" y="380" as="targetPoint"/>
                    </mxGeometry>
                </mxCell>
                <mxCell id="6" value="" style="shape=sumEllipse;perimeter=ellipsePerimeter;whiteSpace=wrap;html=1;backgroundOutline=1;strokeWidth=2;" vertex="1" parent="1">
                    <mxGeometry x="415" y="370" width="20" height="20" as="geometry"/>
                </mxCell>
                <mxCell id="21" style="edgeStyle=orthogonalEdgeStyle;rounded=0;orthogonalLoop=1;jettySize=auto;html=1;entryX=0;entryY=0.5;entryDx=0;entryDy=0;" edge="1" parent="1" source="17" target="2">
                    <mxGeometry relative="1" as="geometry"/>
                </mxCell>
                <mxCell id="17" value="&lt;font style=&quot;font-size: 18px&quot;&gt;T&lt;sub&gt;d2,e&lt;/sub&gt;(s)&lt;/font&gt;" style="text;html=1;strokeColor=none;fillColor=none;align=center;verticalAlign=middle;whiteSpace=wrap;rounded=0;" vertex="1" parent="1">
                    <mxGeometry x="30" y="220" width="80" height="40" as="geometry"/>
                </mxCell>
                <mxCell id="22" style="edgeStyle=orthogonalEdgeStyle;rounded=0;orthogonalLoop=1;jettySize=auto;html=1;exitX=1;exitY=0.5;exitDx=0;exitDy=0;entryX=0;entryY=0.5;entryDx=0;entryDy=0;" edge="1" parent="1" source="19" target="3">
                    <mxGeometry relative="1" as="geometry"/>
                </mxCell>
                <mxCell id="19" value="&lt;font style=&quot;font-size: 18px&quot;&gt;T&lt;sub&gt;d1,e&lt;/sub&gt;(s)&lt;/font&gt;" style="text;html=1;strokeColor=none;fillColor=none;align=center;verticalAlign=middle;whiteSpace=wrap;rounded=0;" vertex="1" parent="1">
                    <mxGeometry x="30" y="290" width="80" height="40" as="geometry"/>
                </mxCell>
                <mxCell id="23" style="edgeStyle=orthogonalEdgeStyle;rounded=0;orthogonalLoop=1;jettySize=auto;html=1;exitX=1;exitY=0.5;exitDx=0;exitDy=0;entryX=0;entryY=0.5;entryDx=0;entryDy=0;" edge="1" parent="1" source="20" target="4">
                    <mxGeometry relative="1" as="geometry"/>
                </mxCell>
                <mxCell id="20" value="&lt;font&gt;&lt;sub style=&quot;font-size: 18px&quot;&gt;Q&lt;/sub&gt;&lt;sub&gt;&lt;font style=&quot;font-size: 15px&quot;&gt;2&lt;/font&gt;&lt;/sub&gt;&lt;sub style=&quot;font-size: 18px&quot;&gt;,e&lt;/sub&gt;&lt;span style=&quot;font-size: 18px&quot;&gt;(s)&lt;/span&gt;&lt;/font&gt;" style="text;html=1;strokeColor=none;fillColor=none;align=center;verticalAlign=middle;whiteSpace=wrap;rounded=0;" vertex="1" parent="1">
                    <mxGeometry x="30" y="360" width="80" height="40" as="geometry"/>
                </mxCell>
                <mxCell id="24" value="&lt;font&gt;&lt;sub style=&quot;font-size: 18px&quot;&gt;T&lt;/sub&gt;&lt;span style=&quot;font-size: 18px&quot;&gt;&lt;sub&gt;e&lt;/sub&gt;&lt;/span&gt;&lt;span style=&quot;font-size: 18px&quot;&gt;(s)&lt;/span&gt;&lt;/font&gt;" style="text;html=1;strokeColor=none;fillColor=none;align=center;verticalAlign=middle;whiteSpace=wrap;rounded=0;" vertex="1" parent="1">
                    <mxGeometry x="500" y="360" width="80" height="40" as="geometry"/>
                </mxCell>
                <mxCell id="25" value="&lt;font style=&quot;font-size: 19px&quot;&gt;+&lt;/font&gt;" style="text;html=1;strokeColor=none;fillColor=none;align=center;verticalAlign=middle;whiteSpace=wrap;rounded=0;" vertex="1" parent="1">
                    <mxGeometry x="320" y="340" width="40" height="20" as="geometry"/>
                </mxCell>
                <mxCell id="27" value="&lt;font style=&quot;font-size: 19px&quot;&gt;+&lt;/font&gt;" style="text;html=1;strokeColor=none;fillColor=none;align=center;verticalAlign=middle;whiteSpace=wrap;rounded=0;" vertex="1" parent="1">
                    <mxGeometry x="280" y="380" width="40" height="20" as="geometry"/>
                </mxCell>
                <mxCell id="28" value="&lt;font style=&quot;font-size: 19px&quot;&gt;+&lt;/font&gt;" style="text;html=1;strokeColor=none;fillColor=none;align=center;verticalAlign=middle;whiteSpace=wrap;rounded=0;" vertex="1" parent="1">
                    <mxGeometry x="415" y="340" width="40" height="20" as="geometry"/>
                </mxCell>
                <mxCell id="29" value="&lt;font style=&quot;font-size: 19px&quot;&gt;+&lt;/font&gt;" style="text;html=1;strokeColor=none;fillColor=none;align=center;verticalAlign=middle;whiteSpace=wrap;rounded=0;" vertex="1" parent="1">
                    <mxGeometry x="375" y="380" width="40" height="20" as="geometry"/>
                </mxCell>
            </root>
        </mxGraphModel>
    </diagram>
    <diagram id="-96h5qSTO-wkhizU7NMH" name="ページ2">
        <mxGraphModel dx="658" dy="492" grid="1" gridSize="10" guides="1" tooltips="1" connect="1" arrows="1" fold="1" page="1" pageScale="1" pageWidth="850" pageHeight="1100" math="0" shadow="0">
            <root>
                <mxCell id="25Z5uzJZ2zVdZSDA82PP-0"/>
                <mxCell id="25Z5uzJZ2zVdZSDA82PP-1" parent="25Z5uzJZ2zVdZSDA82PP-0"/>
                <mxCell id="25Z5uzJZ2zVdZSDA82PP-2" style="edgeStyle=orthogonalEdgeStyle;rounded=0;orthogonalLoop=1;jettySize=auto;html=1;exitX=1;exitY=0.5;exitDx=0;exitDy=0;entryX=0.5;entryY=0;entryDx=0;entryDy=0;" edge="1" source="25Z5uzJZ2zVdZSDA82PP-3" target="25Z5uzJZ2zVdZSDA82PP-11" parent="25Z5uzJZ2zVdZSDA82PP-1">
                    <mxGeometry relative="1" as="geometry"/>
                </mxCell>
                <mxCell id="25Z5uzJZ2zVdZSDA82PP-3" value="&lt;font style=&quot;font-size: 18px&quot;&gt;G&lt;sub&gt;d2&lt;/sub&gt;(s)&lt;/font&gt;" style="rounded=0;whiteSpace=wrap;html=1;strokeWidth=2;" vertex="1" parent="25Z5uzJZ2zVdZSDA82PP-1">
                    <mxGeometry x="520" y="180" width="80" height="40" as="geometry"/>
                </mxCell>
                <mxCell id="25Z5uzJZ2zVdZSDA82PP-4" style="edgeStyle=orthogonalEdgeStyle;rounded=0;orthogonalLoop=1;jettySize=auto;html=1;exitX=1;exitY=0.5;exitDx=0;exitDy=0;entryX=0.5;entryY=0;entryDx=0;entryDy=0;" edge="1" source="25Z5uzJZ2zVdZSDA82PP-5" target="25Z5uzJZ2zVdZSDA82PP-9" parent="25Z5uzJZ2zVdZSDA82PP-1">
                    <mxGeometry relative="1" as="geometry"/>
                </mxCell>
                <mxCell id="25Z5uzJZ2zVdZSDA82PP-5" value="&lt;font style=&quot;font-size: 18px&quot;&gt;G&lt;/font&gt;&lt;font&gt;&lt;sub style=&quot;font-size: 15px&quot;&gt;d1&lt;/sub&gt;&lt;font style=&quot;font-size: 18px&quot;&gt;(s)&lt;/font&gt;&lt;/font&gt;" style="rounded=0;whiteSpace=wrap;html=1;strokeWidth=2;" vertex="1" parent="25Z5uzJZ2zVdZSDA82PP-1">
                    <mxGeometry x="520" y="250" width="80" height="40" as="geometry"/>
                </mxCell>
                <mxCell id="25Z5uzJZ2zVdZSDA82PP-6" style="edgeStyle=orthogonalEdgeStyle;rounded=0;orthogonalLoop=1;jettySize=auto;html=1;exitX=1;exitY=0.5;exitDx=0;exitDy=0;entryX=0;entryY=0.5;entryDx=0;entryDy=0;" edge="1" source="25Z5uzJZ2zVdZSDA82PP-7" target="25Z5uzJZ2zVdZSDA82PP-9" parent="25Z5uzJZ2zVdZSDA82PP-1">
                    <mxGeometry relative="1" as="geometry"/>
                </mxCell>
                <mxCell id="25Z5uzJZ2zVdZSDA82PP-7" value="&lt;font style=&quot;font-size: 18px&quot;&gt;G&lt;/font&gt;&lt;font&gt;&lt;sub style=&quot;font-size: 15px&quot;&gt;p&lt;/sub&gt;&lt;font style=&quot;font-size: 18px&quot;&gt;(s)&lt;/font&gt;&lt;/font&gt;" style="rounded=0;whiteSpace=wrap;html=1;strokeWidth=2;" vertex="1" parent="25Z5uzJZ2zVdZSDA82PP-1">
                    <mxGeometry x="520" y="320" width="80" height="40" as="geometry"/>
                </mxCell>
                <mxCell id="25Z5uzJZ2zVdZSDA82PP-8" style="edgeStyle=orthogonalEdgeStyle;rounded=0;orthogonalLoop=1;jettySize=auto;html=1;exitX=1;exitY=0.5;exitDx=0;exitDy=0;entryX=0;entryY=0.5;entryDx=0;entryDy=0;" edge="1" source="25Z5uzJZ2zVdZSDA82PP-9" target="25Z5uzJZ2zVdZSDA82PP-11" parent="25Z5uzJZ2zVdZSDA82PP-1">
                    <mxGeometry relative="1" as="geometry"/>
                </mxCell>
                <mxCell id="25Z5uzJZ2zVdZSDA82PP-9" value="" style="shape=sumEllipse;perimeter=ellipsePerimeter;whiteSpace=wrap;html=1;backgroundOutline=1;strokeWidth=2;" vertex="1" parent="25Z5uzJZ2zVdZSDA82PP-1">
                    <mxGeometry x="640" y="330" width="20" height="20" as="geometry"/>
                </mxCell>
                <mxCell id="25Z5uzJZ2zVdZSDA82PP-10" style="edgeStyle=orthogonalEdgeStyle;rounded=0;orthogonalLoop=1;jettySize=auto;html=1;exitX=1;exitY=0.5;exitDx=0;exitDy=0;" edge="1" source="25Z5uzJZ2zVdZSDA82PP-11" parent="25Z5uzJZ2zVdZSDA82PP-1">
                    <mxGeometry relative="1" as="geometry">
                        <mxPoint x="750" y="340" as="targetPoint"/>
                    </mxGeometry>
                </mxCell>
                <mxCell id="25Z5uzJZ2zVdZSDA82PP-11" value="" style="shape=sumEllipse;perimeter=ellipsePerimeter;whiteSpace=wrap;html=1;backgroundOutline=1;strokeWidth=2;" vertex="1" parent="25Z5uzJZ2zVdZSDA82PP-1">
                    <mxGeometry x="695" y="330" width="20" height="20" as="geometry"/>
                </mxCell>
                <mxCell id="25Z5uzJZ2zVdZSDA82PP-12" style="edgeStyle=orthogonalEdgeStyle;rounded=0;orthogonalLoop=1;jettySize=auto;html=1;entryX=0;entryY=0.5;entryDx=0;entryDy=0;" edge="1" source="25Z5uzJZ2zVdZSDA82PP-13" target="25Z5uzJZ2zVdZSDA82PP-3" parent="25Z5uzJZ2zVdZSDA82PP-1">
                    <mxGeometry relative="1" as="geometry"/>
                </mxCell>
                <mxCell id="25Z5uzJZ2zVdZSDA82PP-13" value="&lt;font style=&quot;font-size: 18px&quot;&gt;T&lt;sub&gt;d2,e&lt;/sub&gt;(s)&lt;/font&gt;" style="text;html=1;strokeColor=none;fillColor=none;align=center;verticalAlign=middle;whiteSpace=wrap;rounded=0;" vertex="1" parent="25Z5uzJZ2zVdZSDA82PP-1">
                    <mxGeometry x="410" y="180" width="80" height="40" as="geometry"/>
                </mxCell>
                <mxCell id="25Z5uzJZ2zVdZSDA82PP-14" style="edgeStyle=orthogonalEdgeStyle;rounded=0;orthogonalLoop=1;jettySize=auto;html=1;exitX=1;exitY=0.5;exitDx=0;exitDy=0;entryX=0;entryY=0.5;entryDx=0;entryDy=0;" edge="1" source="25Z5uzJZ2zVdZSDA82PP-15" target="25Z5uzJZ2zVdZSDA82PP-5" parent="25Z5uzJZ2zVdZSDA82PP-1">
                    <mxGeometry relative="1" as="geometry"/>
                </mxCell>
                <mxCell id="25Z5uzJZ2zVdZSDA82PP-15" value="&lt;font style=&quot;font-size: 18px&quot;&gt;T&lt;sub&gt;d1,e&lt;/sub&gt;(s)&lt;/font&gt;" style="text;html=1;strokeColor=none;fillColor=none;align=center;verticalAlign=middle;whiteSpace=wrap;rounded=0;" vertex="1" parent="25Z5uzJZ2zVdZSDA82PP-1">
                    <mxGeometry x="410" y="250" width="80" height="40" as="geometry"/>
                </mxCell>
                <mxCell id="25Z5uzJZ2zVdZSDA82PP-16" style="edgeStyle=orthogonalEdgeStyle;rounded=0;orthogonalLoop=1;jettySize=auto;html=1;exitX=1;exitY=0.5;exitDx=0;exitDy=0;entryX=0;entryY=0.5;entryDx=0;entryDy=0;" edge="1" source="25Z5uzJZ2zVdZSDA82PP-17" target="25Z5uzJZ2zVdZSDA82PP-7" parent="25Z5uzJZ2zVdZSDA82PP-1">
                    <mxGeometry relative="1" as="geometry"/>
                </mxCell>
                <mxCell id="25Z5uzJZ2zVdZSDA82PP-17" value="&lt;font&gt;&lt;sub style=&quot;font-size: 18px&quot;&gt;Q&lt;/sub&gt;&lt;sub&gt;&lt;font style=&quot;font-size: 15px&quot;&gt;2&lt;/font&gt;&lt;/sub&gt;&lt;sub style=&quot;font-size: 18px&quot;&gt;,e&lt;/sub&gt;&lt;span style=&quot;font-size: 18px&quot;&gt;(s)&lt;/span&gt;&lt;/font&gt;" style="text;html=1;strokeColor=none;fillColor=none;align=center;verticalAlign=middle;whiteSpace=wrap;rounded=0;" vertex="1" parent="25Z5uzJZ2zVdZSDA82PP-1">
                    <mxGeometry x="410" y="320" width="80" height="40" as="geometry"/>
                </mxCell>
                <mxCell id="25Z5uzJZ2zVdZSDA82PP-18" value="&lt;font style=&quot;font-size: 19px&quot;&gt;+&lt;/font&gt;" style="text;html=1;strokeColor=none;fillColor=none;align=center;verticalAlign=middle;whiteSpace=wrap;rounded=0;" vertex="1" parent="25Z5uzJZ2zVdZSDA82PP-1">
                    <mxGeometry x="640" y="300" width="40" height="20" as="geometry"/>
                </mxCell>
                <mxCell id="25Z5uzJZ2zVdZSDA82PP-19" value="&lt;font style=&quot;font-size: 19px&quot;&gt;+&lt;/font&gt;" style="text;html=1;strokeColor=none;fillColor=none;align=center;verticalAlign=middle;whiteSpace=wrap;rounded=0;" vertex="1" parent="25Z5uzJZ2zVdZSDA82PP-1">
                    <mxGeometry x="600" y="340" width="40" height="20" as="geometry"/>
                </mxCell>
                <mxCell id="25Z5uzJZ2zVdZSDA82PP-20" value="&lt;font style=&quot;font-size: 19px&quot;&gt;+&lt;/font&gt;" style="text;html=1;strokeColor=none;fillColor=none;align=center;verticalAlign=middle;whiteSpace=wrap;rounded=0;" vertex="1" parent="25Z5uzJZ2zVdZSDA82PP-1">
                    <mxGeometry x="695" y="300" width="40" height="20" as="geometry"/>
                </mxCell>
                <mxCell id="25Z5uzJZ2zVdZSDA82PP-21" value="&lt;font style=&quot;font-size: 19px&quot;&gt;+&lt;/font&gt;" style="text;html=1;strokeColor=none;fillColor=none;align=center;verticalAlign=middle;whiteSpace=wrap;rounded=0;" vertex="1" parent="25Z5uzJZ2zVdZSDA82PP-1">
                    <mxGeometry x="655" y="340" width="40" height="20" as="geometry"/>
                </mxCell>
                <mxCell id="uAIBwUrKOXXeAgh2EKzZ-0" value="&lt;font&gt;&lt;sub style=&quot;font-size: 18px&quot;&gt;T&lt;/sub&gt;&lt;span style=&quot;font-size: 18px&quot;&gt;&lt;sub&gt;e&lt;/sub&gt;&lt;/span&gt;&lt;span style=&quot;font-size: 18px&quot;&gt;(s)&lt;/span&gt;&lt;/font&gt;" style="text;html=1;strokeColor=none;fillColor=none;align=center;verticalAlign=middle;whiteSpace=wrap;rounded=0;" vertex="1" parent="25Z5uzJZ2zVdZSDA82PP-1">
                    <mxGeometry x="735" y="320" width="80" height="40" as="geometry"/>
                </mxCell>
                <mxCell id="uAIBwUrKOXXeAgh2EKzZ-10" style="edgeStyle=orthogonalEdgeStyle;rounded=0;orthogonalLoop=1;jettySize=auto;html=1;entryX=0.5;entryY=1;entryDx=0;entryDy=0;" edge="1" parent="25Z5uzJZ2zVdZSDA82PP-1" source="uAIBwUrKOXXeAgh2EKzZ-1" target="uAIBwUrKOXXeAgh2EKzZ-4">
                    <mxGeometry relative="1" as="geometry">
                        <mxPoint x="150" y="360" as="targetPoint"/>
                    </mxGeometry>
                </mxCell>
                <mxCell id="uAIBwUrKOXXeAgh2EKzZ-1" value="&lt;font style=&quot;font-size: 18px&quot;&gt;G&lt;/font&gt;&lt;font style=&quot;font-size: 15px&quot;&gt;m&lt;/font&gt;&lt;font&gt;&lt;font style=&quot;font-size: 18px&quot;&gt;(s)&lt;/font&gt;&lt;/font&gt;" style="rounded=0;whiteSpace=wrap;html=1;strokeWidth=2;" vertex="1" parent="25Z5uzJZ2zVdZSDA82PP-1">
                    <mxGeometry x="520" y="390" width="80" height="40" as="geometry"/>
                </mxCell>
                <mxCell id="uAIBwUrKOXXeAgh2EKzZ-5" style="edgeStyle=orthogonalEdgeStyle;rounded=0;orthogonalLoop=1;jettySize=auto;html=1;entryX=0;entryY=0.5;entryDx=0;entryDy=0;" edge="1" parent="25Z5uzJZ2zVdZSDA82PP-1" source="uAIBwUrKOXXeAgh2EKzZ-2" target="25Z5uzJZ2zVdZSDA82PP-17">
                    <mxGeometry relative="1" as="geometry"/>
                </mxCell>
                <mxCell id="uAIBwUrKOXXeAgh2EKzZ-2" value="&lt;font style=&quot;font-size: 18px&quot;&gt;G&lt;/font&gt;&lt;font style=&quot;font-size: 15px&quot;&gt;f&lt;/font&gt;&lt;font&gt;&lt;font style=&quot;font-size: 18px&quot;&gt;(s)&lt;/font&gt;&lt;/font&gt;" style="rounded=0;whiteSpace=wrap;html=1;strokeWidth=2;" vertex="1" parent="25Z5uzJZ2zVdZSDA82PP-1">
                    <mxGeometry x="310" y="320" width="80" height="40" as="geometry"/>
                </mxCell>
                <mxCell id="uAIBwUrKOXXeAgh2EKzZ-6" style="edgeStyle=orthogonalEdgeStyle;rounded=0;orthogonalLoop=1;jettySize=auto;html=1;entryX=0;entryY=0.5;entryDx=0;entryDy=0;" edge="1" parent="25Z5uzJZ2zVdZSDA82PP-1" source="uAIBwUrKOXXeAgh2EKzZ-3" target="uAIBwUrKOXXeAgh2EKzZ-2">
                    <mxGeometry relative="1" as="geometry"/>
                </mxCell>
                <mxCell id="uAIBwUrKOXXeAgh2EKzZ-3" value="&lt;font style=&quot;font-size: 18px&quot;&gt;G&lt;/font&gt;&lt;font style=&quot;font-size: 15px&quot;&gt;e&lt;/font&gt;&lt;font&gt;&lt;font style=&quot;font-size: 18px&quot;&gt;(s)&lt;/font&gt;&lt;/font&gt;" style="rounded=0;whiteSpace=wrap;html=1;strokeWidth=2;" vertex="1" parent="25Z5uzJZ2zVdZSDA82PP-1">
                    <mxGeometry x="200" y="320" width="80" height="40" as="geometry"/>
                </mxCell>
                <mxCell id="uAIBwUrKOXXeAgh2EKzZ-7" style="edgeStyle=orthogonalEdgeStyle;rounded=0;orthogonalLoop=1;jettySize=auto;html=1;exitX=1;exitY=0.5;exitDx=0;exitDy=0;entryX=0;entryY=0.5;entryDx=0;entryDy=0;" edge="1" parent="25Z5uzJZ2zVdZSDA82PP-1" source="uAIBwUrKOXXeAgh2EKzZ-4" target="uAIBwUrKOXXeAgh2EKzZ-3">
                    <mxGeometry relative="1" as="geometry"/>
                </mxCell>
                <mxCell id="uAIBwUrKOXXeAgh2EKzZ-4" value="" style="shape=sumEllipse;perimeter=ellipsePerimeter;whiteSpace=wrap;html=1;backgroundOutline=1;strokeWidth=2;" vertex="1" parent="25Z5uzJZ2zVdZSDA82PP-1">
                    <mxGeometry x="160" y="330" width="20" height="20" as="geometry"/>
                </mxCell>
                <mxCell id="uAIBwUrKOXXeAgh2EKzZ-9" value="" style="endArrow=classic;html=1;entryX=1;entryY=0.5;entryDx=0;entryDy=0;rounded=0;" edge="1" parent="25Z5uzJZ2zVdZSDA82PP-1" target="uAIBwUrKOXXeAgh2EKzZ-1">
                    <mxGeometry width="50" height="50" relative="1" as="geometry">
                        <mxPoint x="730" y="340" as="sourcePoint"/>
                        <mxPoint x="630" y="230" as="targetPoint"/>
                        <Array as="points">
                            <mxPoint x="730" y="410"/>
                        </Array>
                    </mxGeometry>
                </mxCell>
                <mxCell id="uAIBwUrKOXXeAgh2EKzZ-12" style="edgeStyle=orthogonalEdgeStyle;rounded=0;orthogonalLoop=1;jettySize=auto;html=1;entryX=0;entryY=0.5;entryDx=0;entryDy=0;" edge="1" parent="25Z5uzJZ2zVdZSDA82PP-1" source="uAIBwUrKOXXeAgh2EKzZ-11" target="uAIBwUrKOXXeAgh2EKzZ-4">
                    <mxGeometry relative="1" as="geometry"/>
                </mxCell>
                <mxCell id="uAIBwUrKOXXeAgh2EKzZ-11" value="&lt;font&gt;&lt;span style=&quot;font-size: 18px&quot;&gt;Y&lt;sub&gt;set,e&lt;/sub&gt;&lt;/span&gt;&lt;span style=&quot;font-size: 18px&quot;&gt;(s)&lt;/span&gt;&lt;/font&gt;" style="text;html=1;strokeColor=none;fillColor=none;align=center;verticalAlign=middle;whiteSpace=wrap;rounded=0;" vertex="1" parent="25Z5uzJZ2zVdZSDA82PP-1">
                    <mxGeometry x="50" y="320" width="80" height="40" as="geometry"/>
                </mxCell>
                <mxCell id="uAIBwUrKOXXeAgh2EKzZ-13" value="&lt;font style=&quot;font-size: 19px&quot;&gt;+&lt;/font&gt;" style="text;html=1;strokeColor=none;fillColor=none;align=center;verticalAlign=middle;whiteSpace=wrap;rounded=0;" vertex="1" parent="25Z5uzJZ2zVdZSDA82PP-1">
                    <mxGeometry x="120" y="340" width="40" height="20" as="geometry"/>
                </mxCell>
                <mxCell id="uAIBwUrKOXXeAgh2EKzZ-14" value="&lt;span style=&quot;font-size: 19px&quot;&gt;-&lt;/span&gt;" style="text;html=1;strokeColor=none;fillColor=none;align=center;verticalAlign=middle;whiteSpace=wrap;rounded=0;" vertex="1" parent="25Z5uzJZ2zVdZSDA82PP-1">
                    <mxGeometry x="160" y="360" width="40" height="20" as="geometry"/>
                </mxCell>
                <mxCell id="uAIBwUrKOXXeAgh2EKzZ-15" value="&lt;font&gt;&lt;span style=&quot;font-size: 18px&quot;&gt;Y&lt;sub&gt;e&lt;/sub&gt;&lt;/span&gt;&lt;span style=&quot;font-size: 18px&quot;&gt;(s)&lt;/span&gt;&lt;/font&gt;" style="text;html=1;strokeColor=none;fillColor=none;align=center;verticalAlign=middle;whiteSpace=wrap;rounded=0;" vertex="1" parent="25Z5uzJZ2zVdZSDA82PP-1">
                    <mxGeometry x="390" y="410" width="80" height="40" as="geometry"/>
                </mxCell>
            </root>
        </mxGraphModel>
    </diagram>
</mxfile>